<svg width="39" height="43" viewBox="0 0 39 43" fill="none" xmlns="http://www.w3.org/2000/svg">
<path d="M0 23.654C6.814 23.654 6.021 19.691 8.442 16.745C11.226 13.359 16.644 11.929 17.498 3.904C17.846 0.635 21.13 2.15 22.161 3.869C23.832 6.653 21.937 10.139 20.518 13.18C19.298 15.795 19.549 18.629 22.812 18.186C26.732 17.654 29.019 17 32.381 17C34.671 17 36 18.539 36 19.826C36 20.875 35.688 22.574 35.688 22.574C35.688 22.574 38 23.386 38 25.698C38 27.886 35.971 28.948 35.971 28.948C35.971 28.948 38 29.748 38 31.842C38 34.203 35.283 35.198 35.283 35.198C35.283 35.198 36 36.198 36 37.698C36 38.992 36.125 41.927 23.906 41.927C7.657 41.927 10.807 38.034 0 38.034" stroke="white" stroke-width="2" stroke-miterlimit="10" stroke-linejoin="round"/>
</svg>
