<svg width="28" height="18" viewBox="0 0 28 18" fill="none" xmlns="http://www.w3.org/2000/svg">
<path d="M14 18C9.735 18 5.699 16.193 2.633 12.912C2.256 12.509 2.278 11.876 2.681 11.499C3.085 11.122 3.717 11.144 4.095 11.547C6.778 14.419 10.295 16 14 16C18.763 16 23.149 13.395 25.84 9C23.15 4.605 18.763 2 14 2C9.062 2 4.528 4.801 1.87 9.493C1.598 9.974 0.985998 10.144 0.506998 9.87C0.0259979 9.598 -0.142002 8.988 0.129998 8.507C3.147 3.18 8.333 0 14 0C19.668 0 24.853 3.18 27.87 8.507C28.043 8.813 28.043 9.187 27.87 9.492C24.853 14.819 19.668 18 14 18Z" fill="white"/>
<path d="M14 14C11.243 14 9 11.757 9 9C9 6.243 11.243 4 14 4C16.757 4 19 6.243 19 9C19 11.757 16.757 14 14 14ZM14 6C12.346 6 11 7.346 11 9C11 10.654 12.346 12 14 12C15.654 12 17 10.654 17 9C17 7.346 15.654 6 14 6Z" fill="white"/>
</svg>
