<svg width="39" height="43" viewBox="0 0 39 43" fill="none" xmlns="http://www.w3.org/2000/svg">
<path d="M0 19.346C6.814 19.346 6.021 23.309 8.442 26.254C11.226 29.641 16.644 31.07 17.498 39.096C17.846 42.365 21.13 40.85 22.161 39.131C23.832 36.346 21.937 32.86 20.518 29.819C19.298 27.205 19.549 24.37 22.812 24.813C26.732 25.346 29.019 26 32.381 26C34.671 26 36 24.461 36 23.174C36 22.125 35.688 20.427 35.688 20.427C35.688 20.427 38 19.614 38 17.302C38 15.114 35.971 14.052 35.971 14.052C35.971 14.052 38 13.252 38 11.159C38 8.797 35.283 7.802 35.283 7.802C35.283 7.802 36 6.802 36 5.302C36 4.008 36.125 1.073 23.906 1.073C7.657 1.073 10.808 4.965 0 4.965" stroke="white" stroke-width="2" stroke-miterlimit="10" stroke-linejoin="round"/>
</svg>
